<svg width="32" height="32" viewBox="0 0 32 32" fill="none" xmlns="http://www.w3.org/2000/svg">
  <path d="M29.8836 6.146L16.7418 28.3437c-.3074.5263-.9217.7023-1.3696.3686-.1496-.112-1.6996-1.214-2.4588-1.743a.9972.9972 0 01-.3687-1.2541l3.0327-6.0715a.9993.9993 0 00-1.2776-1.3581l-4.2776 1.4193a.9989.9989 0 01-1.1881-.6286L6.17 6.9182a.9993.9993 0 01.54-1.2336l7.3122-3.2563c.3558-.157.7686-.051 1.0209.2588l14.991 17.9934a.9995.9995 0 01-.766 1.6408h-2.6906a.9995.9995 0 00-.766 1.6408l1.839 2.207a.9995.9995 0 001.7668-.6408v-8.4858c0-.3984.3168-.7212.7148-.7431l3.7158-.1485a.9995.9995 0 00.928-1.0063l-.2558-16.0714a.9995.9995 0 00-1.4502-.8665z" fill="#41D1FF"/>
  <path d="M13.7548 24.7221c-.1925 0-.3848-.0554-.5523-.166l-4.7138-2.9964a1.0002 1.0002 0 011.1056-1.6642l3.858 2.4533 8.6263-10.8238a.9995.9995 0 011.5384 1.2783l-9.18 11.5227a.998.998 0 01-.7816.3744z" fill="#FFFFFF"/>
</svg>
